<svg width="20" height="20" viewBox="0 0 20 20" fill="none" xmlns="http://www.w3.org/2000/svg">
<path d="M17.5 6.6667L15.8333 8.33337L14.5833 5.25003C14.4655 4.93448 14.2547 4.66205 13.9789 4.46866C13.7031 4.27527 13.3752 4.16999 13.0383 4.1667H7C6.66042 4.1589 6.32656 4.25504 6.04314 4.44225C5.75972 4.62946 5.54026 4.8988 5.41417 5.2142L4.16667 8.33337L2.5 6.6667" stroke="#5D5F63" stroke-width="1.66667" stroke-linecap="round" stroke-linejoin="round"/>
<path d="M5.83301 11.6667H5.84134" stroke="#5D5F63" stroke-width="1.66667" stroke-linecap="round" stroke-linejoin="round"/>
<path d="M14.167 11.6667H14.1753" stroke="#5D5F63" stroke-width="1.66667" stroke-linecap="round" stroke-linejoin="round"/>
<path d="M15.8333 8.33325H4.16667C3.24619 8.33325 2.5 9.07944 2.5 9.99992V13.3333C2.5 14.2537 3.24619 14.9999 4.16667 14.9999H15.8333C16.7538 14.9999 17.5 14.2537 17.5 13.3333V9.99992C17.5 9.07944 16.7538 8.33325 15.8333 8.33325Z" stroke="#5D5F63" stroke-width="1.66667" stroke-linecap="round" stroke-linejoin="round"/>
<path d="M4.16699 15V16.6667" stroke="#5D5F63" stroke-width="1.66667" stroke-linecap="round" stroke-linejoin="round"/>
<path d="M15.833 15V16.6667" stroke="#5D5F63" stroke-width="1.66667" stroke-linecap="round" stroke-linejoin="round"/>
</svg>
