<svg width="20" height="20" viewBox="0 0 20 20" fill="none" xmlns="http://www.w3.org/2000/svg">
<path d="M15.0003 6.66658V4.99992C15.0003 4.55789 14.8247 4.13397 14.5122 3.82141C14.1996 3.50885 13.7757 3.33325 13.3337 3.33325H3.33366C2.89163 3.33325 2.46771 3.50885 2.15515 3.82141C1.84259 4.13397 1.66699 4.55789 1.66699 4.99992V10.8333C1.66699 11.2753 1.84259 11.6992 2.15515 12.0118C2.46771 12.3243 2.89163 12.4999 3.33366 12.4999H10.0003" stroke="#5D5F63" stroke-width="1.66667" stroke-linecap="round" stroke-linejoin="round"/>
<path d="M8.33301 15.8334V12.5334V15.1584" stroke="#5D5F63" stroke-width="1.66667" stroke-linecap="round" stroke-linejoin="round"/>
<path d="M5.83301 15.8333H9.99967" stroke="#5D5F63" stroke-width="1.66667" stroke-linecap="round" stroke-linejoin="round"/>
<path d="M16.6663 10H14.9997C14.0792 10 13.333 10.7462 13.333 11.6667V16.6667C13.333 17.5871 14.0792 18.3333 14.9997 18.3333H16.6663C17.5868 18.3333 18.333 17.5871 18.333 16.6667V11.6667C18.333 10.7462 17.5868 10 16.6663 10Z" stroke="#5D5F63" stroke-width="1.66667" stroke-linecap="round" stroke-linejoin="round"/>
</svg>
