<svg width="20" height="20" viewBox="0 0 20 20" fill="none" xmlns="http://www.w3.org/2000/svg">
<path d="M16.6663 7.49992V4.99992C16.6663 4.55789 16.4907 4.13397 16.1782 3.82141C15.8656 3.50885 15.4417 3.33325 14.9997 3.33325H4.99967C4.55765 3.33325 4.13372 3.50885 3.82116 3.82141C3.5086 4.13397 3.33301 4.55789 3.33301 4.99992V7.49992" stroke="#5D5F63" stroke-width="1.66667" stroke-linecap="round" stroke-linejoin="round"/>
<path d="M1.66699 13.3333C1.66699 13.7754 1.84259 14.1993 2.15515 14.5118C2.46771 14.8244 2.89163 15 3.33366 15H16.667C17.109 15 17.5329 14.8244 17.8455 14.5118C18.1581 14.1993 18.3337 13.7754 18.3337 13.3333V9.16667C18.3337 8.72464 18.1581 8.30072 17.8455 7.98816C17.5329 7.6756 17.109 7.5 16.667 7.5C16.225 7.5 15.801 7.6756 15.4885 7.98816C15.1759 8.30072 15.0003 8.72464 15.0003 9.16667V10.4167C15.0003 10.5272 14.9564 10.6332 14.8783 10.7113C14.8001 10.7894 14.6942 10.8333 14.5837 10.8333H5.41699C5.30649 10.8333 5.2005 10.7894 5.12236 10.7113C5.04422 10.6332 5.00033 10.5272 5.00033 10.4167V9.16667C5.00033 8.72464 4.82473 8.30072 4.51217 7.98816C4.19961 7.6756 3.77569 7.5 3.33366 7.5C2.89163 7.5 2.46771 7.6756 2.15515 7.98816C1.84259 8.30072 1.66699 8.72464 1.66699 9.16667V13.3333Z" stroke="#5D5F63" stroke-width="1.66667" stroke-linecap="round" stroke-linejoin="round"/>
<path d="M3.33301 15V16.6667" stroke="#5D5F63" stroke-width="1.66667" stroke-linecap="round" stroke-linejoin="round"/>
<path d="M16.667 15V16.6667" stroke="#5D5F63" stroke-width="1.66667" stroke-linecap="round" stroke-linejoin="round"/>
<path d="M10 3.33325V10.8333" stroke="#5D5F63" stroke-width="1.66667" stroke-linecap="round" stroke-linejoin="round"/>
</svg>
