<svg width="20" height="20" viewBox="0 0 20 20" fill="none" xmlns="http://www.w3.org/2000/svg">
<path d="M10 10V15" stroke="#5D5F63" stroke-width="1.66667" stroke-linecap="round" stroke-linejoin="round"/>
<path d="M3.39724 8.84591C3.34441 8.97256 3.32367 9.1103 3.33687 9.24689C3.35007 9.38348 3.39679 9.51469 3.47289 9.62888C3.54899 9.74307 3.65211 9.8367 3.7731 9.90146C3.89408 9.96622 4.02919 10.0001 4.16641 10.0001H15.8331C15.9703 10.0001 16.1054 9.96622 16.2264 9.90146C16.3474 9.8367 16.4505 9.74307 16.5266 9.62888C16.6027 9.51469 16.6494 9.38348 16.6626 9.24689C16.6758 9.1103 16.6551 8.97256 16.6022 8.84591L14.0381 2.69258C13.9116 2.38883 13.698 2.12933 13.4242 1.94678C13.1505 1.76423 12.8288 1.66679 12.4997 1.66675H7.49974C7.1708 1.66672 6.8492 1.76403 6.57545 1.94643C6.30171 2.12883 6.08806 2.38816 5.96141 2.69175L3.39724 8.84591Z" stroke="#5D5F63" stroke-width="1.66667" stroke-linecap="round" stroke-linejoin="round"/>
<path d="M6.66699 16.6667C6.66699 16.2246 6.84259 15.8007 7.15515 15.4882C7.46771 15.1756 7.89163 15 8.33366 15H11.667C12.109 15 12.5329 15.1756 12.8455 15.4882C13.1581 15.8007 13.3337 16.2246 13.3337 16.6667V17.5C13.3337 17.721 13.2459 17.933 13.0896 18.0893C12.9333 18.2455 12.7213 18.3333 12.5003 18.3333H7.50033C7.27931 18.3333 7.06735 18.2455 6.91107 18.0893C6.75479 17.933 6.66699 17.721 6.66699 17.5V16.6667Z" stroke="#5D5F63" stroke-width="1.66667" stroke-linecap="round" stroke-linejoin="round"/>
</svg>
