<svg width="20" height="20" viewBox="0 0 20 20" fill="none" xmlns="http://www.w3.org/2000/svg">
<path d="M9.16699 13.8218V15.8334C9.16699 16.0544 9.0792 16.2664 8.92291 16.4227C8.76663 16.579 8.55467 16.6668 8.33366 16.6668H1.66699L15.3087 3.02509C15.6402 2.69357 16.0898 2.50732 16.5587 2.50732C17.0275 2.50732 17.4771 2.69357 17.8087 3.02509C18.1402 3.35661 18.3264 3.80625 18.3264 4.27509C18.3264 4.74393 18.1402 5.19357 17.8087 5.52509L9.75616 13.5776C9.59989 13.7338 9.38796 13.8218 9.16699 13.8218ZM9.16699 13.8218C8.94602 13.8218 8.7341 13.7338 8.57783 13.5776L6.66699 11.6668" stroke="#5D5F63" stroke-width="1.66667" stroke-linecap="round" stroke-linejoin="round"/>
</svg>
