<svg width="20" height="20" viewBox="0 0 20 20" fill="none" xmlns="http://www.w3.org/2000/svg">
<g clip-path="url(#clip0_222_1340)">
<path d="M10 5.44008V2.50008C10 2.27907 10.0878 2.06711 10.2441 1.91083C10.4004 1.75455 10.6123 1.66675 10.8333 1.66675" stroke="#5D5F63" stroke-width="1.66667" stroke-linecap="round" stroke-linejoin="round"/>
<path d="M15.1978 17.5C17.2305 15.2013 18.3467 12.2352 18.3337 9.16664C18.3337 8.20144 18.0543 7.25687 17.5292 6.44696C17.0042 5.63704 16.256 4.99641 15.3749 4.60237C14.4938 4.20834 13.5174 4.07776 12.5637 4.22639C11.61 4.37502 10.7198 4.7965 10.0003 5.43997C9.28092 4.7965 8.39064 4.37502 7.43695 4.22639C6.48326 4.07776 5.50693 4.20834 4.62582 4.60237C3.74471 4.99641 2.99648 5.63704 2.47145 6.44696C1.94642 7.25687 1.66703 8.20144 1.66701 9.16664C1.66175 12.2338 2.77689 15.1972 4.80284 17.5C5.17593 17.9174 5.67832 18.1974 6.22952 18.2954C6.78072 18.3933 7.34883 18.3033 7.84284 18.04C8.50681 17.6857 9.24779 17.5004 10.0003 17.5004C10.7529 17.5004 11.4939 17.6857 12.1578 18.04C12.6519 18.3033 13.22 18.3933 13.7712 18.2954C14.3224 18.1974 14.8248 17.9174 15.1978 17.5Z" stroke="#5D5F63" stroke-width="1.66667" stroke-linecap="round" stroke-linejoin="round"/>
</g>
<defs>
<clipPath id="clip0_222_1340">
<rect width="20" height="20" fill="white"/>
</clipPath>
</defs>
</svg>
