<svg width="17" height="17" viewBox="0 0 17 17" fill="none" xmlns="http://www.w3.org/2000/svg">
<path fill-rule="evenodd" clip-rule="evenodd" d="M16.4438 9.85804L12.6587 9.85804C12.3529 9.85804 12.1025 9.5682 12.1025 9.2127L12.1025 0.643843C12.1025 0.289942 12.3529 -0.0015049 12.6587 -0.0015049L16.4438 -0.0015049C16.7496 -0.0015049 17 0.288342 17 0.643843L17 9.2127C17 9.5682 16.7496 9.85804 16.4438 9.85804ZM8.27588 16.2859C7.98258 18.0073 5.54769 16.422 5.38721 13.6469C5.33878 12.7981 5.41487 11.8101 5.59472 10.7068L2.11531 10.7068C0.668211 10.6411 -0.594893 9.44169 0.297441 7.47202C0.0940723 6.6137 0.0636368 5.60645 0.615639 5.20931C0.546465 3.85456 0.870197 3.01545 1.47615 2.35249C1.51627 1.67511 1.64079 1.07301 1.92301 0.610214C2.39062 -0.153633 2.76969 0.0289211 3.50569 0.0289211L9.38127 0.0289211C10.3123 0.0289211 10.8201 0.325172 11.4288 1.20912L11.4288 8.78353C9.67733 9.3312 8.74625 12.1047 8.27588 13.9255L8.27588 16.2859Z" fill="#5D5F63"/>
</svg>
