<svg width="24" height="24" viewBox="0 0 24 24" fill="none" xmlns="http://www.w3.org/2000/svg">
<path d="M24 12.0001C24 18.6276 18.6272 24 12.0002 24C5.37273 24 0 18.6276 0 12.0001C0 5.37276 5.37273 0 12.0002 0C18.6272 0 24 5.37276 24 12.0001Z" fill="#5E7BC6"/>
<path d="M13.0576 9.19174V8.0549C13.0576 7.50099 13.4271 7.37196 13.6864 7.37196C13.9451 7.37196 15.2808 7.37196 15.2808 7.37196V4.93629L13.0848 4.92697C10.6472 4.92697 10.0933 6.7437 10.0933 7.9067V9.19174H8.68359V12.0342H10.1051C10.1051 15.2562 10.1051 19.1416 10.1051 19.1416H12.9479C12.9479 19.1416 12.9479 15.2171 12.9479 12.0342H15.0577L15.1599 10.918L15.317 9.19174H13.0576Z" fill="white"/>
</svg>
