<svg width="24" height="24" viewBox="0 0 24 24" fill="none" xmlns="http://www.w3.org/2000/svg">
<path d="M24 11.9999C24 18.6275 18.6272 24 12.0002 24C5.37258 24 0 18.6275 0 11.9999C0 5.37231 5.37258 -1.90735e-06 12.0002 -1.90735e-06C18.6272 -1.90735e-06 24 5.37231 24 11.9999Z" fill="url(#paint0_linear_4085_14141)"/>
<path d="M17.7221 16.3609C17.7221 17.1122 17.1107 17.7231 16.3593 17.7231H7.63918C6.88788 17.7231 6.27715 17.1122 6.27715 16.3609V10.5416H8.39878C8.34573 10.6717 8.30066 10.8058 8.26159 10.9427C8.16556 11.2787 8.11306 11.6331 8.11306 12.0001C8.11306 14.1431 9.8567 15.8869 11.9999 15.8869C14.1427 15.8869 15.8863 14.1431 15.8863 12.0001C15.8863 11.6331 15.833 11.2787 15.7368 10.9423C15.6979 10.8058 15.6526 10.6717 15.5996 10.5416H17.7221V16.3609ZM9.97139 10.5416C10.4269 9.91141 11.165 9.49889 11.9999 9.49889C12.8344 9.49889 13.5727 9.91141 14.0282 10.5416C14.083 10.6178 14.1321 10.6979 14.1787 10.7803C14.3825 11.1416 14.5018 11.5571 14.5018 12.0001C14.5018 13.3789 13.3784 14.5012 11.9999 14.5012C10.6201 14.5012 9.49741 13.3789 9.49741 12.0001C9.49741 11.557 9.61694 11.1416 9.82104 10.78C9.86727 10.6979 9.91637 10.6178 9.97139 10.5416ZM17.1476 6.53175L17.4612 6.52978V8.93908L15.0609 8.94679L15.0525 6.53802L17.1476 6.53175ZM16.3593 4.893H7.63918C6.12421 4.893 4.89258 6.12462 4.89258 7.63955V16.3609C4.89258 17.8751 6.12421 19.1074 7.63918 19.1074H16.3593C17.8741 19.1074 19.1069 17.8751 19.1069 16.3609V7.63955C19.1069 6.12462 17.8741 4.893 16.3593 4.893Z" fill="white"/>
<defs>
<linearGradient id="paint0_linear_4085_14141" x1="0" y1="12.0001" x2="24" y2="12.0001" gradientUnits="userSpaceOnUse">
<stop stop-color="#FCD160"/>
<stop offset="0.0969388" stop-color="#FCD160"/>
<stop offset="0.44898" stop-color="#E74D54"/>
<stop offset="0.678571" stop-color="#BD299C"/>
<stop offset="1" stop-color="#575EB4"/>
</linearGradient>
</defs>
</svg>
