<svg width="137" height="43" viewBox="0 0 137 43" fill="none" xmlns="http://www.w3.org/2000/svg">
<rect y="0.800049" width="136.8" height="42" rx="18" fill="#C32033"/>
<path d="M26.8926 21.6081C32.0526 17.6241 38.7606 17.6241 43.9206 21.6081" stroke="#F8F8F8" stroke-width="1.8" stroke-linecap="round" stroke-linejoin="round"/>
<path d="M23.4004 17.432C30.6724 11.816 40.1284 11.816 47.4004 17.432" stroke="#F8F8F8" stroke-width="1.8" stroke-linecap="round" stroke-linejoin="round"/>
<path d="M29.1484 25.988C32.9284 23.06 37.8604 23.06 41.6404 25.988" stroke="#F8F8F8" stroke-width="1.8" stroke-linecap="round" stroke-linejoin="round"/>
<path d="M32.2803 30.38C34.1763 28.916 36.6363 28.916 38.5323 30.38" stroke="#F8F8F8" stroke-width="1.8" stroke-linecap="round" stroke-linejoin="round"/>
<path d="M78.553 26.6072H83.1226V29.3H75.0646V14.9792H78.553V26.6072ZM86.5409 16.7336C85.9289 16.7336 85.4257 16.5568 85.0313 16.2032C84.6505 15.836 84.4601 15.3872 84.4601 14.8568C84.4601 14.3128 84.6505 13.864 85.0313 13.5104C85.4257 13.1432 85.9289 12.9596 86.5409 12.9596C87.1393 12.9596 87.6289 13.1432 88.0097 13.5104C88.4041 13.864 88.6013 14.3128 88.6013 14.8568C88.6013 15.3872 88.4041 15.836 88.0097 16.2032C87.6289 16.5568 87.1393 16.7336 86.5409 16.7336ZM88.2749 17.9168V29.3H84.7865V17.9168H88.2749ZM95.9233 26.036L98.3917 17.9168H102.104L98.0653 29.3H93.7609L89.7217 17.9168H93.4549L95.9233 26.036ZM114.303 23.4248C114.303 23.7512 114.283 24.0912 114.242 24.4448H106.347C106.402 25.152 106.626 25.696 107.02 26.0768C107.428 26.444 107.925 26.6276 108.51 26.6276C109.38 26.6276 109.985 26.2604 110.325 25.526H114.038C113.848 26.274 113.501 26.9472 112.998 27.5456C112.508 28.144 111.889 28.6132 111.141 28.9532C110.393 29.2932 109.557 29.4632 108.632 29.4632C107.517 29.4632 106.524 29.2252 105.654 28.7492C104.783 28.2732 104.103 27.5932 103.614 26.7092C103.124 25.8252 102.879 24.7916 102.879 23.6084C102.879 22.4252 103.117 21.3916 103.593 20.5076C104.083 19.6236 104.763 18.9436 105.633 18.4676C106.504 17.9916 107.503 17.7536 108.632 17.7536C109.734 17.7536 110.713 17.9848 111.57 18.4472C112.426 18.9096 113.093 19.5692 113.569 20.426C114.058 21.2828 114.303 22.2824 114.303 23.4248ZM110.733 22.5068C110.733 21.9084 110.529 21.4324 110.121 21.0788C109.713 20.7252 109.203 20.5484 108.591 20.5484C108.006 20.5484 107.51 20.7184 107.102 21.0584C106.708 21.3984 106.463 21.8812 106.368 22.5068H110.733Z" fill="white"/>
</svg>
