<svg width="24" height="24" viewBox="0 0 24 24" fill="none" xmlns="http://www.w3.org/2000/svg">
<path fill-rule="evenodd" clip-rule="evenodd" d="M7.238 7.23798C7.238 4.60805 9.36998 2.47607 11.9999 2.47607C14.6298 2.47607 16.7618 4.60805 16.7618 7.23798V9.14274C18.3398 9.14274 19.619 10.4219 19.619 11.9999V16.9252C19.619 17.683 19.3179 18.4097 18.7821 18.9455L17.0408 20.6869C16.5049 21.2227 15.7782 21.5237 15.0205 21.5237H8.97936C8.2216 21.5237 7.49487 21.2227 6.95906 20.6869L5.2177 18.9455C4.68188 18.4097 4.38086 17.683 4.38086 16.9252V11.9999C4.38086 10.4219 5.66005 9.14274 7.238 9.14274V7.23798ZM7.238 11.0475C6.71202 11.0475 6.28562 11.4739 6.28562 11.9999V16.9252C6.28562 17.1778 6.38596 17.42 6.56457 17.5986L8.30593 19.34C8.48453 19.5186 8.72677 19.6189 8.97936 19.6189H15.0205C15.273 19.6189 15.5153 19.5186 15.6939 19.34L17.4352 17.5986C17.6139 17.42 17.7142 17.1778 17.7142 16.9252V11.9999C17.7142 11.4739 17.2878 11.0475 16.7618 11.0475H7.238ZM14.857 9.14274H9.14276V7.23798C9.14276 5.66002 10.422 4.38084 11.9999 4.38084C13.5779 4.38084 14.857 5.66002 14.857 7.23798V9.14274ZM11.9999 13.9046C12.5259 13.9046 12.9523 14.331 12.9523 14.857V16.7618C12.9523 17.2878 12.5259 17.7142 11.9999 17.7142C11.4739 17.7142 11.0475 17.2878 11.0475 16.7618V14.857C11.0475 14.331 11.4739 13.9046 11.9999 13.9046Z" fill="#5D5F63"/>
</svg>
