<svg width="20" height="21" viewBox="0 0 20 21" fill="none" xmlns="http://www.w3.org/2000/svg">
<path d="M18.467 11.3323C18.3467 11.2118 18.1959 11.1263 18.0308 11.085C17.8656 11.0438 17.6923 11.0482 17.5295 11.098C16.3921 11.4413 15.1829 11.4697 14.0306 11.1802C12.8783 10.8906 11.8261 10.2939 10.9862 9.45363C10.1462 8.61335 9.54992 7.56097 9.26079 6.40858C8.97167 5.25619 9.00055 4.04695 9.34435 2.90968C9.39451 2.74679 9.39931 2.57331 9.35824 2.4079C9.31718 2.24248 9.23179 2.09139 9.11128 1.97088C8.99076 1.85036 8.83967 1.76498 8.67426 1.72391C8.50884 1.68284 8.33536 1.68765 8.17248 1.7378C6.46185 2.26358 4.96067 3.31558 3.88263 4.74405C2.9399 5.99709 2.365 7.48805 2.22244 9.04963C2.07989 10.6112 2.37531 12.1816 3.07557 13.5847C3.77583 14.9877 4.85321 16.1678 6.18683 16.9926C7.52044 17.8175 9.05753 18.2543 10.6256 18.2542C12.4563 18.2596 14.2383 17.6643 15.6983 16.5597C17.126 15.4806 18.1769 13.9786 18.7014 12.2675C18.7507 12.105 18.7549 11.9322 18.7136 11.7675C18.6723 11.6028 18.5871 11.4524 18.467 11.3323ZM14.5701 15.062C13.3065 16.0133 11.7417 16.4762 10.1639 16.3655C8.58603 16.2548 7.10126 15.5779 5.98282 14.4595C4.86437 13.341 4.18751 11.8563 4.0768 10.2784C3.96609 8.70059 4.42898 7.13585 5.38029 5.87218C5.88086 5.21004 6.50123 4.64771 7.2092 4.21436C7.19513 4.41436 7.1881 4.61515 7.1881 4.81671C7.19058 7.05371 8.08033 9.19838 9.66213 10.7802C11.2439 12.362 13.3886 13.2517 15.6256 13.2542C15.8272 13.2542 16.0279 13.2472 16.2279 13.2331C15.7948 13.9412 15.2324 14.5616 14.5701 15.062Z" fill="#C32033"/>
</svg>
