<svg width="20" height="21" viewBox="0 0 20 21" fill="none" xmlns="http://www.w3.org/2000/svg">
<path d="M17.5 12.5348L13.8211 10.8856L13.807 10.8793C13.5679 10.7763 13.3067 10.7347 13.0474 10.7586C12.7881 10.7825 12.5389 10.871 12.3227 11.0161C12.2923 11.0364 12.2631 11.0583 12.2352 11.0817L10.4922 12.5661C9.47657 12.0153 8.42735 10.9747 7.87579 9.97153L9.36485 8.20122C9.38879 8.17265 9.41096 8.14264 9.43126 8.11138C9.57249 7.89587 9.65824 7.64878 9.68087 7.39212C9.70349 7.13545 9.6623 6.87717 9.56094 6.64028C9.55854 6.63574 9.55645 6.63105 9.55469 6.62622L7.90626 2.94106C7.77094 2.63288 7.54001 2.37644 7.24763 2.20971C6.95525 2.04298 6.61696 1.97481 6.28282 2.01528C5.14873 2.16426 4.10765 2.72096 3.35402 3.58142C2.60039 4.44187 2.18573 5.54724 2.18751 6.69106C2.18751 13.0668 7.37422 18.2536 13.75 18.2536C14.8938 18.2553 15.9992 17.8407 16.8597 17.087C17.7201 16.3334 18.2768 15.2923 18.4258 14.1583C18.4663 13.8241 18.3981 13.4858 18.2314 13.1934C18.0646 12.9011 17.8082 12.6701 17.5 12.5348ZM13.75 16.3786C11.1817 16.3755 8.71942 15.3538 6.90333 13.5377C5.08725 11.7216 4.06561 9.2594 4.06251 6.69106C4.06072 6.04379 4.28046 5.4154 4.68522 4.9103C5.08999 4.40519 5.6554 4.0538 6.28751 3.9145L7.75782 7.19575L6.26094 8.97856C6.23675 9.0074 6.21431 9.03766 6.19376 9.06919C6.04622 9.29462 5.95947 9.55437 5.94195 9.82322C5.92443 10.0921 5.97672 10.3609 6.09376 10.6036C6.82969 12.1098 8.3461 13.6161 9.86797 14.3536C10.1123 14.4694 10.3824 14.5198 10.6521 14.5C10.9217 14.4801 11.1816 14.3906 11.4063 14.2403C11.4365 14.2199 11.4654 14.1977 11.493 14.1739L13.2453 12.684L16.5266 14.1536C16.3873 14.7857 16.0359 15.3511 15.5308 15.7558C15.0257 16.1606 14.3973 16.3804 13.75 16.3786Z" fill="#C32033"/>
</svg>
