<svg width="22" height="22" viewBox="0 0 22 22" fill="none" xmlns="http://www.w3.org/2000/svg">
<path d="M8.24968 20.1667H13.7497C18.333 20.1667 20.1663 18.3333 20.1663 13.75V8.25C20.1663 3.66667 18.333 1.83333 13.7497 1.83333H8.24968C3.66634 1.83333 1.83301 3.66667 1.83301 8.25V13.75C1.83301 18.3333 3.66634 20.1667 8.24968 20.1667Z" stroke="#CCCCCC" stroke-width="0.916667" stroke-linecap="round" stroke-linejoin="round"/>
<path d="M14.2725 16.9583V13.3833" stroke="#CCCCCC" stroke-width="0.916667" stroke-miterlimit="10" stroke-linecap="round" stroke-linejoin="round"/>
<path d="M14.2725 6.82917V5.04167" stroke="#CCCCCC" stroke-width="0.916667" stroke-miterlimit="10" stroke-linecap="round" stroke-linejoin="round"/>
<path d="M14.272 11.5958C15.5883 11.5958 16.6553 10.5288 16.6553 9.2125C16.6553 7.89623 15.5883 6.82917 14.272 6.82917C12.9557 6.82917 11.8887 7.89623 11.8887 9.2125C11.8887 10.5288 12.9557 11.5958 14.272 11.5958Z" stroke="#CCCCCC" stroke-width="0.916667" stroke-miterlimit="10" stroke-linecap="round" stroke-linejoin="round"/>
<path d="M7.72754 16.9583V15.1708" stroke="#CCCCCC" stroke-width="0.916667" stroke-miterlimit="10" stroke-linecap="round" stroke-linejoin="round"/>
<path d="M7.72754 8.61667V5.04167" stroke="#CCCCCC" stroke-width="0.916667" stroke-miterlimit="10" stroke-linecap="round" stroke-linejoin="round"/>
<path d="M7.72806 15.1708C9.04434 15.1708 10.1114 14.1038 10.1114 12.7875C10.1114 11.4712 9.04434 10.4042 7.72806 10.4042C6.41178 10.4042 5.34473 11.4712 5.34473 12.7875C5.34473 14.1038 6.41178 15.1708 7.72806 15.1708Z" stroke="#CCCCCC" stroke-width="0.916667" stroke-miterlimit="10" stroke-linecap="round" stroke-linejoin="round"/>
</svg>
