<svg width="16" height="22" viewBox="0 0 16 22" fill="none" xmlns="http://www.w3.org/2000/svg">
<path d="M14 7H12C11.45 7 11 7.45 11 8C11 8.55 11.45 9 12 9H14V20H2V9H4C4.55 9 5 8.55 5 8C5 7.45 4.55 7 4 7H2C0.9 7 0 7.9 0 9V20C0 21.1 0.9 22 2 22H14C15.1 22 16 21.1 16 20V9C16 7.9 15.1 7 14 7Z" fill="black"/>
<path d="M7.9997 15C8.5497 15 8.9997 14.55 8.9997 14V3.99996H10.7897C11.2397 3.99996 11.4597 3.45996 11.1397 3.14996L8.3497 0.359961C8.1497 0.159961 7.8397 0.159961 7.6397 0.359961L4.8497 3.14996C4.5397 3.45996 4.7597 3.99996 5.2097 3.99996H6.9997V14C6.9997 14.55 7.4497 15 7.9997 15Z" fill="black"/>
</svg>
